{
    "patcher": {
        "fileversion": 1,
        "appversion": {
            "major": 9,
            "minor": 1,
            "revision": 2,
            "architecture": "x64",
            "modernui": 1
        },
        "classnamespace": "box",
        "rect": [ 308.0, 96.0, 896.0, 600.0 ],
        "boxes": [
            {
                "box": {
                    "id": "obj-83",
                    "maxclass": "comment",
                    "numinlets": 1,
                    "numoutlets": 0,
                    "patching_rect": [ 683.7837381362915, 438.81078004837036, 150.0, 20.0 ],
                    "text": "<scope~>"
                }
            },
            {
                "box": {
                    "id": "obj-81",
                    "maxclass": "comment",
                    "numinlets": 1,
                    "numoutlets": 0,
                    "patching_rect": [ 645.108060836792, 308.10808753967285, 150.0, 20.0 ],
                    "text": "<spectroscope~>"
                }
            },
            {
                "box": {
                    "id": "obj-79",
                    "maxclass": "spectroscope~",
                    "numinlets": 2,
                    "numoutlets": 1,
                    "outlettype": [ "" ],
                    "patching_rect": [ 545.9459095001221, 325.67565393447876, 197.0, 84.0 ]
                }
            },
            {
                "box": {
                    "id": "obj-78",
                    "maxclass": "scope~",
                    "numinlets": 2,
                    "numoutlets": 0,
                    "patching_rect": [ 545.9459095001221, 460.81078004837036, 197.29728412628174, 82.43242692947388 ]
                }
            },
            {
                "box": {
                    "id": "obj-77",
                    "maxclass": "button",
                    "numinlets": 1,
                    "numoutlets": 1,
                    "outlettype": [ "bang" ],
                    "parameter_enable": 0,
                    "patching_rect": [ 708.108060836792, 25.666667461395264, 24.0, 24.0 ]
                }
            },
            {
                "box": {
                    "id": "obj-41",
                    "maxclass": "newobj",
                    "numinlets": 1,
                    "numoutlets": 0,
                    "patching_rect": [ 266.21619844436646, 586.4864473342896, 68.0, 22.0 ],
                    "text": "send~ out2"
                }
            },
            {
                "box": {
                    "id": "obj-40",
                    "maxclass": "newobj",
                    "numinlets": 1,
                    "numoutlets": 0,
                    "patching_rect": [ 187.83782529830933, 586.4864473342896, 68.0, 22.0 ],
                    "text": "send~ out1"
                }
            },
            {
                "box": {
                    "id": "obj-71",
                    "maxclass": "newobj",
                    "numinlets": 1,
                    "numoutlets": 0,
                    "patcher": {
                        "fileversion": 1,
                        "appversion": {
                            "major": 9,
                            "minor": 1,
                            "revision": 2,
                            "architecture": "x64",
                            "modernui": 1
                        },
                        "classnamespace": "box",
                        "rect": [ 274.0, 123.0, 896.0, 601.0 ],
                        "boxes": [
                            {
                                "box": {
                                    "color": [ 0.011765, 0.396078, 0.752941, 1.0 ],
                                    "id": "obj-9",
                                    "maxclass": "newobj",
                                    "numinlets": 3,
                                    "numoutlets": 1,
                                    "outlettype": [ "float" ],
                                    "patching_rect": [ 279.0, 297.0, 98.0, 22.0 ],
                                    "text": "peek~ high-freqs"
                                }
                            },
                            {
                                "box": {
                                    "color": [ 0.011765, 0.396078, 0.752941, 1.0 ],
                                    "id": "obj-8",
                                    "maxclass": "newobj",
                                    "numinlets": 3,
                                    "numoutlets": 1,
                                    "outlettype": [ "float" ],
                                    "patching_rect": [ 170.0, 297.0, 95.0, 22.0 ],
                                    "text": "peek~ mid-freqs"
                                }
                            },
                            {
                                "box": {
                                    "color": [ 0.011765, 0.396078, 0.752941, 1.0 ],
                                    "id": "obj-21",
                                    "maxclass": "newobj",
                                    "numinlets": 3,
                                    "numoutlets": 1,
                                    "outlettype": [ "float" ],
                                    "patching_rect": [ 63.0, 297.0, 94.0, 22.0 ],
                                    "text": "peek~ low-freqs"
                                }
                            },
                            {
                                "box": {
                                    "id": "obj-5",
                                    "maxclass": "newobj",
                                    "numinlets": 2,
                                    "numoutlets": 1,
                                    "outlettype": [ "" ],
                                    "patching_rect": [ 63.0, 229.0, 47.0, 22.0 ],
                                    "text": "pack i f"
                                }
                            },
                            {
                                "box": {
                                    "id": "obj-4",
                                    "maxclass": "newobj",
                                    "numinlets": 6,
                                    "numoutlets": 1,
                                    "outlettype": [ "" ],
                                    "patching_rect": [ 91.0, 185.0, 107.0, 22.0 ],
                                    "text": "scale 0 8191 -1. 1."
                                }
                            },
                            {
                                "box": {
                                    "id": "obj-3",
                                    "maxclass": "newobj",
                                    "numinlets": 2,
                                    "numoutlets": 1,
                                    "outlettype": [ "int" ],
                                    "patching_rect": [ 63.0, 134.0, 29.5, 22.0 ],
                                    "text": "- 1"
                                }
                            },
                            {
                                "box": {
                                    "id": "obj-2",
                                    "maxclass": "newobj",
                                    "numinlets": 2,
                                    "numoutlets": 3,
                                    "outlettype": [ "bang", "bang", "int" ],
                                    "patching_rect": [ 28.0, 76.0, 54.0, 22.0 ],
                                    "text": "uzi 8192"
                                }
                            },
                            {
                                "box": {
                                    "comment": "",
                                    "id": "obj-1",
                                    "index": 1,
                                    "maxclass": "inlet",
                                    "numinlets": 0,
                                    "numoutlets": 1,
                                    "outlettype": [ "bang" ],
                                    "patching_rect": [ 28.0, 20.0, 30.0, 30.0 ]
                                }
                            }
                        ],
                        "lines": [
                            {
                                "patchline": {
                                    "destination": [ "obj-2", 0 ],
                                    "source": [ "obj-1", 0 ]
                                }
                            },
                            {
                                "patchline": {
                                    "destination": [ "obj-3", 0 ],
                                    "source": [ "obj-2", 2 ]
                                }
                            },
                            {
                                "patchline": {
                                    "destination": [ "obj-4", 0 ],
                                    "midpoints": [ 72.5, 171.0, 100.5, 171.0 ],
                                    "order": 0,
                                    "source": [ "obj-3", 0 ]
                                }
                            },
                            {
                                "patchline": {
                                    "destination": [ "obj-5", 0 ],
                                    "order": 1,
                                    "source": [ "obj-3", 0 ]
                                }
                            },
                            {
                                "patchline": {
                                    "destination": [ "obj-5", 1 ],
                                    "source": [ "obj-4", 0 ]
                                }
                            },
                            {
                                "patchline": {
                                    "destination": [ "obj-21", 0 ],
                                    "order": 2,
                                    "source": [ "obj-5", 0 ]
                                }
                            },
                            {
                                "patchline": {
                                    "destination": [ "obj-8", 0 ],
                                    "midpoints": [ 72.5, 284.9765625, 179.5, 284.9765625 ],
                                    "order": 1,
                                    "source": [ "obj-5", 0 ]
                                }
                            },
                            {
                                "patchline": {
                                    "destination": [ "obj-9", 0 ],
                                    "midpoints": [ 72.5, 277.0859375, 288.5, 277.0859375 ],
                                    "order": 0,
                                    "source": [ "obj-5", 0 ]
                                }
                            }
                        ]
                    },
                    "patching_rect": [ 708.108060836792, 64.86486053466797, 139.0, 22.0 ],
                    "text": "p linear-transfer-function"
                }
            },
            {
                "box": {
                    "id": "obj-69",
                    "maxclass": "newobj",
                    "numinlets": 2,
                    "numoutlets": 1,
                    "outlettype": [ "signal" ],
                    "patching_rect": [ 187.83782529830933, 533.7837481498718, 54.0, 22.0 ],
                    "text": "*~ 0.707"
                }
            },
            {
                "box": {
                    "channels": 1,
                    "id": "obj-61",
                    "lastchannelcount": 0,
                    "maxclass": "live.gain~",
                    "numinlets": 1,
                    "numoutlets": 4,
                    "outlettype": [ "signal", "", "float", "list" ],
                    "parameter_enable": 1,
                    "patching_rect": [ 339.1891665458679, 349.99997663497925, 79.0, 136.0 ],
                    "saved_attribute_attributes": {
                        "valueof": {
                            "parameter_longname": "live.gain~[4]",
                            "parameter_mmax": 6.0,
                            "parameter_mmin": -70.0,
                            "parameter_modmode": 3,
                            "parameter_shortname": "live.gain~[1]",
                            "parameter_type": 0,
                            "parameter_unitstyle": 4
                        }
                    },
                    "varname": "live.gain~[3]"
                }
            },
            {
                "box": {
                    "channels": 1,
                    "id": "obj-58",
                    "lastchannelcount": 0,
                    "maxclass": "live.gain~",
                    "numinlets": 1,
                    "numoutlets": 4,
                    "outlettype": [ "signal", "", "float", "list" ],
                    "parameter_enable": 1,
                    "patching_rect": [ 187.83782529830933, 349.99997663497925, 79.0, 136.0 ],
                    "saved_attribute_attributes": {
                        "valueof": {
                            "parameter_longname": "live.gain~[3]",
                            "parameter_mmax": 6.0,
                            "parameter_mmin": -70.0,
                            "parameter_modmode": 3,
                            "parameter_shortname": "live.gain~[1]",
                            "parameter_type": 0,
                            "parameter_unitstyle": 4
                        }
                    },
                    "varname": "live.gain~[2]"
                }
            },
            {
                "box": {
                    "id": "obj-43",
                    "maxclass": "comment",
                    "numinlets": 1,
                    "numoutlets": 0,
                    "patching_rect": [ 394.5945682525635, 308.10808753967285, 84.0, 20.0 ],
                    "text": "<waveform~>"
                }
            },
            {
                "box": {
                    "id": "obj-39",
                    "maxclass": "comment",
                    "numinlets": 1,
                    "numoutlets": 0,
                    "patching_rect": [ 240.54052448272705, 308.10808753967285, 84.0, 20.0 ],
                    "text": "<waveform~>"
                }
            },
            {
                "box": {
                    "id": "obj-38",
                    "maxclass": "button",
                    "numinlets": 1,
                    "numoutlets": 1,
                    "outlettype": [ "bang" ],
                    "parameter_enable": 0,
                    "patching_rect": [ 545.9459095001221, 25.666667461395264, 24.0, 24.0 ]
                }
            },
            {
                "box": {
                    "id": "obj-34",
                    "maxclass": "newobj",
                    "numinlets": 1,
                    "numoutlets": 3,
                    "outlettype": [ "", "", "" ],
                    "patching_rect": [ 545.9459095001221, 187.83782529830933, 237.9189043045044, 22.0 ],
                    "text": "t l l l"
                }
            },
            {
                "box": {
                    "buffername": "mid-freqs",
                    "id": "obj-32",
                    "maxclass": "waveform~",
                    "numinlets": 5,
                    "numoutlets": 6,
                    "outlettype": [ "float", "float", "float", "float", "list", "" ],
                    "patching_rect": [ 205.40539169311523, 249.99998331069946, 118.91891098022461, 52.702699184417725 ],
                    "setmode": 4
                }
            },
            {
                "box": {
                    "buffername": "high-freqs",
                    "id": "obj-31",
                    "maxclass": "waveform~",
                    "numinlets": 5,
                    "numoutlets": 6,
                    "outlettype": [ "float", "float", "float", "float", "list", "" ],
                    "patching_rect": [ 360.8107867240906, 249.99998331069946, 118.91891098022461, 52.702699184417725 ],
                    "setmode": 4
                }
            },
            {
                "box": {
                    "id": "obj-30",
                    "maxclass": "newobj",
                    "numinlets": 1,
                    "numoutlets": 1,
                    "outlettype": [ "" ],
                    "patcher": {
                        "fileversion": 1,
                        "appversion": {
                            "major": 9,
                            "minor": 1,
                            "revision": 2,
                            "architecture": "x64",
                            "modernui": 1
                        },
                        "classnamespace": "box",
                        "rect": [ 59.0, 115.0, 896.0, 601.0 ],
                        "boxes": [
                            {
                                "box": {
                                    "comment": "",
                                    "id": "obj-19",
                                    "index": 1,
                                    "maxclass": "outlet",
                                    "numinlets": 1,
                                    "numoutlets": 0,
                                    "patching_rect": [ 96.0, 252.0, 30.0, 30.0 ]
                                }
                            },
                            {
                                "box": {
                                    "format": 6,
                                    "id": "obj-18",
                                    "maxclass": "flonum",
                                    "numinlets": 1,
                                    "numoutlets": 2,
                                    "outlettype": [ "", "bang" ],
                                    "parameter_enable": 0,
                                    "patching_rect": [ 96.0, 202.0, 50.0, 22.0 ]
                                }
                            },
                            {
                                "box": {
                                    "id": "obj-17",
                                    "maxclass": "comment",
                                    "numinlets": 1,
                                    "numoutlets": 0,
                                    "patching_rect": [ 154.0, 203.0, 399.0, 20.0 ],
                                    "text": "<= desired buffer~ length expressed in milliseconds"
                                }
                            },
                            {
                                "box": {
                                    "id": "obj-12",
                                    "maxclass": "comment",
                                    "numinlets": 1,
                                    "numoutlets": 0,
                                    "patching_rect": [ 249.0, 155.0, 474.0, 20.0 ],
                                    "text": "<= number of samples (desired buffer~ length) concert seconds to milliseconds"
                                }
                            },
                            {
                                "box": {
                                    "id": "obj-10",
                                    "maxclass": "newobj",
                                    "numinlets": 1,
                                    "numoutlets": 1,
                                    "outlettype": [ "" ],
                                    "patching_rect": [ 96.0, 154.0, 145.0, 22.0 ],
                                    "text": "expr ( 8192. / $f1 ) * 1000"
                                }
                            },
                            {
                                "box": {
                                    "id": "obj-9",
                                    "maxclass": "comment",
                                    "numinlets": 1,
                                    "numoutlets": 0,
                                    "patching_rect": [ 154.0, 106.0, 369.0, 20.0 ],
                                    "text": "<= sampling rate (output will update if the sample rate changes)"
                                }
                            },
                            {
                                "box": {
                                    "id": "obj-7",
                                    "maxclass": "comment",
                                    "numinlets": 1,
                                    "numoutlets": 0,
                                    "patching_rect": [ 122.0, 65.0, 210.0, 20.0 ],
                                    "text": "<= grab the current sampling rate (sr)"
                                }
                            },
                            {
                                "box": {
                                    "id": "obj-5",
                                    "maxclass": "comment",
                                    "numinlets": 1,
                                    "numoutlets": 0,
                                    "patching_rect": [ 86.0, 22.0, 257.0, 20.0 ],
                                    "text": "<= band to calculate the buffer length"
                                }
                            },
                            {
                                "box": {
                                    "format": 6,
                                    "id": "obj-3",
                                    "maxclass": "flonum",
                                    "numinlets": 1,
                                    "numoutlets": 2,
                                    "outlettype": [ "", "bang" ],
                                    "parameter_enable": 0,
                                    "patching_rect": [ 96.0, 105.0, 50.0, 22.0 ]
                                }
                            },
                            {
                                "box": {
                                    "comment": "",
                                    "id": "obj-1",
                                    "index": 1,
                                    "maxclass": "inlet",
                                    "numinlets": 0,
                                    "numoutlets": 1,
                                    "outlettype": [ "bang" ],
                                    "patching_rect": [ 48.0, 17.0, 30.0, 30.0 ]
                                }
                            },
                            {
                                "box": {
                                    "id": "obj-33",
                                    "maxclass": "newobj",
                                    "numinlets": 2,
                                    "numoutlets": 2,
                                    "outlettype": [ "", "int" ],
                                    "patching_rect": [ 48.0, 64.0, 67.0, 22.0 ],
                                    "text": "adstatus sr"
                                }
                            }
                        ],
                        "lines": [
                            {
                                "patchline": {
                                    "destination": [ "obj-33", 0 ],
                                    "source": [ "obj-1", 0 ]
                                }
                            },
                            {
                                "patchline": {
                                    "destination": [ "obj-18", 0 ],
                                    "source": [ "obj-10", 0 ]
                                }
                            },
                            {
                                "patchline": {
                                    "destination": [ "obj-19", 0 ],
                                    "source": [ "obj-18", 0 ]
                                }
                            },
                            {
                                "patchline": {
                                    "destination": [ "obj-10", 0 ],
                                    "source": [ "obj-3", 0 ]
                                }
                            },
                            {
                                "patchline": {
                                    "destination": [ "obj-3", 0 ],
                                    "source": [ "obj-33", 1 ]
                                }
                            }
                        ]
                    },
                    "patching_rect": [ 545.9459095001221, 64.86486053466797, 137.0, 22.0 ],
                    "text": "p calculate-buffer-length"
                }
            },
            {
                "box": {
                    "format": 6,
                    "id": "obj-29",
                    "maxclass": "flonum",
                    "numinlets": 1,
                    "numoutlets": 2,
                    "outlettype": [ "", "bang" ],
                    "parameter_enable": 0,
                    "patching_rect": [ 545.9459095001221, 108.10810089111328, 50.0, 22.0 ]
                }
            },
            {
                "box": {
                    "id": "obj-27",
                    "maxclass": "newobj",
                    "numinlets": 1,
                    "numoutlets": 1,
                    "outlettype": [ "" ],
                    "patching_rect": [ 545.9459095001221, 149.99998998641968, 77.0, 22.0 ],
                    "text": "prepend size"
                }
            },
            {
                "box": {
                    "id": "obj-22",
                    "maxclass": "message",
                    "numinlets": 2,
                    "numoutlets": 1,
                    "outlettype": [ "" ],
                    "patching_rect": [ 360.8107867240906, 221.62160682678223, 147.0, 22.0 ],
                    "presentation_linecount": 3,
                    "text": "set high-freqs, mode draw"
                }
            },
            {
                "box": {
                    "id": "obj-20",
                    "maxclass": "message",
                    "numinlets": 2,
                    "numoutlets": 1,
                    "outlettype": [ "" ],
                    "patching_rect": [ 205.40539169311523, 221.62160682678223, 144.0, 22.0 ],
                    "presentation_linecount": 3,
                    "text": "set mid-freqs, mode draw"
                }
            },
            {
                "box": {
                    "color": [ 0.011765, 0.396078, 0.752941, 1.0 ],
                    "id": "obj-18",
                    "maxclass": "newobj",
                    "numinlets": 1,
                    "numoutlets": 2,
                    "outlettype": [ "float", "bang" ],
                    "patching_rect": [ 764.8648138046265, 225.67566061019897, 103.0, 22.0 ],
                    "text": "buffer~ high-freqs"
                }
            },
            {
                "box": {
                    "color": [ 0.011765, 0.396078, 0.752941, 1.0 ],
                    "id": "obj-16",
                    "maxclass": "newobj",
                    "numinlets": 1,
                    "numoutlets": 2,
                    "outlettype": [ "float", "bang" ],
                    "patching_rect": [ 655.4053616523743, 225.67566061019897, 99.0, 22.0 ],
                    "text": "buffer~ mid-freqs"
                }
            },
            {
                "box": {
                    "color": [ 0.011765, 0.396078, 0.752941, 1.0 ],
                    "id": "obj-9",
                    "maxclass": "newobj",
                    "numinlets": 3,
                    "numoutlets": 1,
                    "outlettype": [ "signal" ],
                    "patching_rect": [ 339.1891665458679, 183.78377151489258, 148.0, 22.0 ],
                    "text": "lookup~ high-freqs 0 8192"
                }
            },
            {
                "box": {
                    "color": [ 0.011765, 0.396078, 0.752941, 1.0 ],
                    "id": "obj-8",
                    "maxclass": "newobj",
                    "numinlets": 3,
                    "numoutlets": 1,
                    "outlettype": [ "signal" ],
                    "patching_rect": [ 187.83782529830933, 183.78377151489258, 144.0, 22.0 ],
                    "text": "lookup~ mid-freqs 0 8192"
                }
            },
            {
                "box": {
                    "id": "obj-6",
                    "maxclass": "comment",
                    "numinlets": 1,
                    "numoutlets": 0,
                    "patching_rect": [ 119.0, 44.00000059604645, 408.00001215934753, 20.0 ],
                    "text": "state variable filter (breaks up sounds into bands: low, middle, and high)"
                }
            },
            {
                "box": {
                    "id": "obj-2",
                    "maxclass": "newobj",
                    "numinlets": 3,
                    "numoutlets": 4,
                    "outlettype": [ "signal", "signal", "signal", "signal" ],
                    "patching_rect": [ 39.189186573028564, 66.66666865348816, 460.1621413230896, 22.0 ],
                    "text": "svf~ 500 0.5"
                }
            },
            {
                "box": {
                    "id": "obj-1",
                    "maxclass": "newobj",
                    "numinlets": 1,
                    "numoutlets": 1,
                    "outlettype": [ "signal" ],
                    "patching_rect": [ 38.66666781902313, 26.666667461395264, 74.0, 22.0 ],
                    "text": "receive~ in1"
                }
            },
            {
                "box": {
                    "id": "obj-70",
                    "maxclass": "comment",
                    "numinlets": 1,
                    "numoutlets": 0,
                    "patching_rect": [ 489.0, 777.0, 150.0, 20.0 ]
                }
            },
            {
                "box": {
                    "channels": 1,
                    "id": "obj-46",
                    "lastchannelcount": 0,
                    "maxclass": "live.gain~",
                    "numinlets": 1,
                    "numoutlets": 4,
                    "outlettype": [ "signal", "", "float", "list" ],
                    "parameter_enable": 1,
                    "patching_rect": [ 39.189186573028564, 349.99997663497925, 79.0, 136.0 ],
                    "saved_attribute_attributes": {
                        "valueof": {
                            "parameter_longname": "live.gain~[1]",
                            "parameter_mmax": 6.0,
                            "parameter_mmin": -70.0,
                            "parameter_modmode": 3,
                            "parameter_shortname": "live.gain~[1]",
                            "parameter_type": 0,
                            "parameter_unitstyle": 4
                        }
                    },
                    "varname": "live.gain~[1]"
                }
            },
            {
                "box": {
                    "color": [ 0.011765, 0.396078, 0.752941, 1.0 ],
                    "id": "obj-21",
                    "maxclass": "newobj",
                    "numinlets": 3,
                    "numoutlets": 1,
                    "outlettype": [ "signal" ],
                    "patching_rect": [ 39.189186573028564, 184.00000548362732, 143.0, 22.0 ],
                    "text": "lookup~ low-freqs 0 8192"
                }
            },
            {
                "box": {
                    "id": "obj-17",
                    "maxclass": "message",
                    "numinlets": 2,
                    "numoutlets": 1,
                    "outlettype": [ "" ],
                    "patching_rect": [ 56.75675296783447, 221.62160682678223, 143.0, 22.0 ],
                    "text": "set low-freqs, mode draw"
                }
            },
            {
                "box": {
                    "id": "obj-15",
                    "maxclass": "comment",
                    "numinlets": 1,
                    "numoutlets": 0,
                    "patching_rect": [ 91.89188575744629, 308.10808753967285, 84.0, 20.0 ],
                    "text": "<waveform~>"
                }
            },
            {
                "box": {
                    "buffername": "low-freqs",
                    "id": "obj-13",
                    "maxclass": "waveform~",
                    "numinlets": 5,
                    "numoutlets": 6,
                    "outlettype": [ "float", "float", "float", "float", "list", "" ],
                    "patching_rect": [ 56.75675296783447, 249.99998331069946, 118.91891098022461, 52.702699184417725 ],
                    "setmode": 4
                }
            },
            {
                "box": {
                    "color": [ 0.011765, 0.396078, 0.752941, 1.0 ],
                    "id": "obj-10",
                    "maxclass": "newobj",
                    "numinlets": 1,
                    "numoutlets": 2,
                    "outlettype": [ "float", "bang" ],
                    "patching_rect": [ 545.9459095001221, 225.67566061019897, 98.0, 22.0 ],
                    "text": "buffer~ low-freqs"
                }
            }
        ],
        "lines": [
            {
                "patchline": {
                    "destination": [ "obj-2", 0 ],
                    "source": [ "obj-1", 0 ]
                }
            },
            {
                "patchline": {
                    "destination": [ "obj-13", 0 ],
                    "source": [ "obj-17", 0 ]
                }
            },
            {
                "patchline": {
                    "destination": [ "obj-21", 0 ],
                    "source": [ "obj-2", 0 ]
                }
            },
            {
                "patchline": {
                    "destination": [ "obj-8", 0 ],
                    "source": [ "obj-2", 2 ]
                }
            },
            {
                "patchline": {
                    "destination": [ "obj-9", 0 ],
                    "source": [ "obj-2", 1 ]
                }
            },
            {
                "patchline": {
                    "destination": [ "obj-32", 0 ],
                    "source": [ "obj-20", 0 ]
                }
            },
            {
                "patchline": {
                    "destination": [ "obj-46", 0 ],
                    "source": [ "obj-21", 0 ]
                }
            },
            {
                "patchline": {
                    "destination": [ "obj-31", 0 ],
                    "source": [ "obj-22", 0 ]
                }
            },
            {
                "patchline": {
                    "destination": [ "obj-34", 0 ],
                    "source": [ "obj-27", 0 ]
                }
            },
            {
                "patchline": {
                    "destination": [ "obj-27", 0 ],
                    "source": [ "obj-29", 0 ]
                }
            },
            {
                "patchline": {
                    "destination": [ "obj-29", 0 ],
                    "source": [ "obj-30", 0 ]
                }
            },
            {
                "patchline": {
                    "destination": [ "obj-10", 0 ],
                    "source": [ "obj-34", 0 ]
                }
            },
            {
                "patchline": {
                    "destination": [ "obj-16", 0 ],
                    "source": [ "obj-34", 1 ]
                }
            },
            {
                "patchline": {
                    "destination": [ "obj-18", 0 ],
                    "source": [ "obj-34", 2 ]
                }
            },
            {
                "patchline": {
                    "destination": [ "obj-30", 0 ],
                    "source": [ "obj-38", 0 ]
                }
            },
            {
                "patchline": {
                    "destination": [ "obj-69", 0 ],
                    "midpoints": [ 48.689186573028564, 516.2920187618583, 197.33782529830933, 516.2920187618583 ],
                    "source": [ "obj-46", 0 ]
                }
            },
            {
                "patchline": {
                    "destination": [ "obj-69", 0 ],
                    "source": [ "obj-58", 0 ]
                }
            },
            {
                "patchline": {
                    "destination": [ "obj-69", 0 ],
                    "midpoints": [ 348.6891665458679, 515.1465374194086, 197.33782529830933, 515.1465374194086 ],
                    "source": [ "obj-61", 0 ]
                }
            },
            {
                "patchline": {
                    "destination": [ "obj-40", 0 ],
                    "order": 1,
                    "source": [ "obj-69", 0 ]
                }
            },
            {
                "patchline": {
                    "destination": [ "obj-41", 0 ],
                    "midpoints": [ 197.33782529830933, 571.3513512611389, 275.71619844436646, 571.3513512611389 ],
                    "order": 0,
                    "source": [ "obj-69", 0 ]
                }
            },
            {
                "patchline": {
                    "destination": [ "obj-71", 0 ],
                    "source": [ "obj-77", 0 ]
                }
            },
            {
                "patchline": {
                    "destination": [ "obj-58", 0 ],
                    "source": [ "obj-8", 0 ]
                }
            },
            {
                "patchline": {
                    "destination": [ "obj-61", 0 ],
                    "source": [ "obj-9", 0 ]
                }
            }
        ],
        "parameters": {
            "obj-46": [ "live.gain~[1]", "live.gain~[1]", 0 ],
            "obj-58": [ "live.gain~[3]", "live.gain~[1]", 0 ],
            "obj-61": [ "live.gain~[4]", "live.gain~[1]", 0 ],
            "parameterbanks": {
                "0": {
                    "index": 0,
                    "name": "",
                    "parameters": [ "-", "-", "-", "-", "-", "-", "-", "-" ],
                    "buttons": [ "-", "-", "-", "-", "-", "-", "-", "-" ]
                }
            },
            "inherited_shortname": 1
        },
        "autosave": 0
    }
}