{
    "patcher": {
        "fileversion": 1,
        "appversion": {
            "major": 9,
            "minor": 1,
            "revision": 2,
            "architecture": "x64",
            "modernui": 1
        },
        "classnamespace": "box",
        "rect": [ 339.0, 99.0, 896.0, 600.0 ],
        "boxes": [
            {
                "box": {
                    "id": "obj-67",
                    "maxclass": "newobj",
                    "numinlets": 2,
                    "numoutlets": 2,
                    "outlettype": [ "", "" ],
                    "patching_rect": [ 237.97468042373657, 471.8312397003174, 87.3354417681694, 22.0 ],
                    "text": "zl 4096 lookup"
                }
            },
            {
                "box": {
                    "id": "obj-66",
                    "maxclass": "newobj",
                    "numinlets": 1,
                    "numoutlets": 2,
                    "outlettype": [ "int", "int" ],
                    "patching_rect": [ 173.41771924495697, 419.9325062036514, 83.55063194036484, 22.0 ],
                    "text": "t i i"
                }
            },
            {
                "box": {
                    "id": "obj-65",
                    "maxclass": "newobj",
                    "numinlets": 2,
                    "numoutlets": 3,
                    "outlettype": [ "bang", "bang", "int" ],
                    "patching_rect": [ 122.78480851650238, 381.9578231573105, 69.62025225162506, 22.0 ],
                    "text": "uzi 512 0"
                }
            },
            {
                "box": {
                    "id": "obj-64",
                    "maxclass": "newobj",
                    "numinlets": 1,
                    "numoutlets": 2,
                    "outlettype": [ "bang", "" ],
                    "patching_rect": [ 122.78480851650238, 341.4514945745468, 202.5253136754036, 22.0 ],
                    "text": "t b l"
                }
            },
            {
                "box": {
                    "color": [ 0.011765, 0.396078, 0.752941, 1.0 ],
                    "id": "obj-63",
                    "maxclass": "newobj",
                    "numinlets": 3,
                    "numoutlets": 1,
                    "outlettype": [ "float" ],
                    "patching_rect": [ 173.41771924495697, 518.6666821241379, 148.10126388072968, 22.0 ],
                    "text": "peek~ interpolated-buffer"
                }
            },
            {
                "box": {
                    "id": "obj-62",
                    "maxclass": "message",
                    "numinlets": 2,
                    "numoutlets": 1,
                    "outlettype": [ "" ],
                    "patching_rect": [ 19.0, 165.82279121875763, 125.0, 22.0 ],
                    "text": "set interpolated-buffer"
                }
            },
            {
                "box": {
                    "id": "obj-60",
                    "maxclass": "comment",
                    "numinlets": 1,
                    "numoutlets": 0,
                    "patching_rect": [ 15.202531695365906, 274.683549284935, 150.0, 20.0 ],
                    "text": "<waveform~>"
                }
            },
            {
                "box": {
                    "buffername": "interpolated-buffer",
                    "id": "obj-58",
                    "maxclass": "waveform~",
                    "numinlets": 5,
                    "numoutlets": 6,
                    "outlettype": [ "float", "float", "float", "float", "list", "" ],
                    "patching_rect": [ 19.0, 200.00000596046448, 256.0, 64.0 ]
                }
            },
            {
                "box": {
                    "id": "obj-57",
                    "maxclass": "comment",
                    "numinlets": 1,
                    "numoutlets": 0,
                    "patching_rect": [ 376.0000112056732, 553.0970598459244, 146.35445272922516, 20.0 ],
                    "text": "<multislider @size 512>"
                }
            },
            {
                "box": {
                    "id": "obj-55",
                    "maxclass": "multislider",
                    "numinlets": 1,
                    "numoutlets": 2,
                    "outlettype": [ "", "" ],
                    "parameter_enable": 0,
                    "patching_rect": [ 376.0000112056732, 398.6666821241379, 358.0, 142.0 ],
                    "size": 512
                }
            },
            {
                "box": {
                    "id": "obj-54",
                    "maxclass": "button",
                    "numinlets": 1,
                    "numoutlets": 1,
                    "outlettype": [ "bang" ],
                    "parameter_enable": 0,
                    "patching_rect": [ 543.7036858797073, 60.333335161209106, 24.0, 24.0 ]
                }
            },
            {
                "box": {
                    "id": "obj-50",
                    "maxclass": "newobj",
                    "numinlets": 2,
                    "numoutlets": 2,
                    "outlettype": [ "", "" ],
                    "patching_rect": [ 502.6666816473007, 226.66667342185974, 100.0, 22.0 ],
                    "text": "zl 4096 group"
                }
            },
            {
                "box": {
                    "id": "obj-52",
                    "maxclass": "newobj",
                    "numinlets": 2,
                    "numoutlets": 3,
                    "outlettype": [ "bang", "bang", "int" ],
                    "patching_rect": [ 482.96294713020325, 128.00000381469727, 58.51851660013199, 22.0 ],
                    "text": "uzi 512 0"
                }
            },
            {
                "box": {
                    "id": "obj-49",
                    "maxclass": "newobj",
                    "numinlets": 2,
                    "numoutlets": 2,
                    "outlettype": [ "", "" ],
                    "patching_rect": [ 627.8480930328369, 226.66667342185974, 106.151926279068, 22.0 ],
                    "text": "zl 4096 group"
                }
            },
            {
                "box": {
                    "id": "obj-48",
                    "maxclass": "newobj",
                    "numinlets": 2,
                    "numoutlets": 3,
                    "outlettype": [ "bang", "bang", "int" ],
                    "patching_rect": [ 609.6666772961617, 128.00000381469727, 57.333342015743256, 22.0 ],
                    "text": "uzi 512 0"
                }
            },
            {
                "box": {
                    "id": "obj-36",
                    "maxclass": "comment",
                    "numinlets": 1,
                    "numoutlets": 0,
                    "patching_rect": [ 646.6666859388351, 262.66667449474335, 29.268293380737305, 20.0 ],
                    "text": "$f3"
                }
            },
            {
                "box": {
                    "id": "obj-35",
                    "maxclass": "comment",
                    "numinlets": 1,
                    "numoutlets": 0,
                    "patching_rect": [ 520.0000154972076, 262.66667449474335, 29.268293380737305, 20.0 ],
                    "text": "$f2"
                }
            },
            {
                "box": {
                    "id": "obj-34",
                    "maxclass": "comment",
                    "numinlets": 1,
                    "numoutlets": 0,
                    "patching_rect": [ 393.33334505558014, 260.0000077486038, 29.268293380737305, 20.0 ],
                    "text": "$f1"
                }
            },
            {
                "box": {
                    "id": "obj-28",
                    "linecount": 5,
                    "maxclass": "comment",
                    "numinlets": 1,
                    "numoutlets": 0,
                    "patching_rect": [ 609.6666772961617, 14.666667103767395, 150.0, 74.0 ],
                    "text": "<live.dial>\n\"cmd i\" => params\n- Range/Enum to 0. 1. in \n- Short Name to \"weight\"\n- Units to \"float\""
                }
            },
            {
                "box": {
                    "id": "obj-24",
                    "maxclass": "live.dial",
                    "numinlets": 1,
                    "numoutlets": 2,
                    "outlettype": [ "", "float" ],
                    "parameter_enable": 1,
                    "patching_rect": [ 376.0000112056732, 54.66666829586029, 41.0, 48.0 ],
                    "saved_attribute_attributes": {
                        "valueof": {
                            "parameter_longname": "live.dial",
                            "parameter_mmax": 1.0,
                            "parameter_modmode": 3,
                            "parameter_shortname": "weight",
                            "parameter_type": 0,
                            "parameter_unitstyle": 1
                        }
                    },
                    "varname": "live.dial"
                }
            },
            {
                "box": {
                    "id": "obj-22",
                    "maxclass": "comment",
                    "numinlets": 1,
                    "numoutlets": 0,
                    "patching_rect": [ 389.87341260910034, 311.3924009799957, 316.0, 20.0 ],
                    "text": "perform same operation on every number in incoming list"
                }
            },
            {
                "box": {
                    "id": "obj-18",
                    "maxclass": "newobj",
                    "numinlets": 3,
                    "numoutlets": 1,
                    "outlettype": [ "" ],
                    "patching_rect": [ 376.0000112056732, 282.6666750907898, 271.42856884002686, 22.0 ],
                    "text": "vexpr $f2 * (1. - $f1) + ($f3 * $f1) @scalarmode 1"
                }
            },
            {
                "box": {
                    "id": "obj-16",
                    "linecount": 2,
                    "maxclass": "comment",
                    "numinlets": 1,
                    "numoutlets": 0,
                    "patching_rect": [ 376.0000112056732, 14.666667103767395, 228.0, 33.0 ],
                    "text": "linear interpolation  between lists in Max: \ny = A(1-x) + Bx"
                }
            },
            {
                "box": {
                    "color": [ 0.870588, 0.415686, 0.062745, 1.0 ],
                    "id": "obj-10",
                    "maxclass": "newobj",
                    "numinlets": 3,
                    "numoutlets": 1,
                    "outlettype": [ "float" ],
                    "patching_rect": [ 648.0000193119049, 180.00000536441803, 86.0, 22.0 ],
                    "text": "peek~ my-sinc"
                }
            },
            {
                "box": {
                    "color": [ 0.960784, 0.827451, 0.156863, 1.0 ],
                    "id": "obj-7",
                    "maxclass": "newobj",
                    "numinlets": 3,
                    "numoutlets": 1,
                    "outlettype": [ "float" ],
                    "patching_rect": [ 522.6666822433472, 180.00000536441803, 80.0, 22.0 ],
                    "text": "peek~ my-sin"
                }
            },
            {
                "box": {
                    "color": [ 0.011765, 0.396078, 0.752941, 1.0 ],
                    "id": "obj-6",
                    "maxclass": "newobj",
                    "numinlets": 1,
                    "numoutlets": 2,
                    "outlettype": [ "float", "bang" ],
                    "patching_rect": [ 19.0, 92.0, 221.0, 22.0 ],
                    "text": "buffer~ interpolated-buffer @samps 512"
                }
            },
            {
                "box": {
                    "color": [ 0.870588, 0.415686, 0.062745, 1.0 ],
                    "id": "obj-5",
                    "maxclass": "newobj",
                    "numinlets": 1,
                    "numoutlets": 2,
                    "outlettype": [ "float", "bang" ],
                    "patching_rect": [ 196.59090721607208, 55.0, 165.0, 22.0 ],
                    "text": "buffer~ my-sinc @samps 512"
                }
            },
            {
                "box": {
                    "color": [ 0.960784, 0.827451, 0.156863, 1.0 ],
                    "id": "obj-4",
                    "maxclass": "newobj",
                    "numinlets": 1,
                    "numoutlets": 2,
                    "outlettype": [ "float", "bang" ],
                    "patching_rect": [ 19.0, 55.0, 159.0, 22.0 ],
                    "text": "buffer~ my-sin @samps 512"
                }
            },
            {
                "box": {
                    "id": "obj-70",
                    "maxclass": "comment",
                    "numinlets": 1,
                    "numoutlets": 0,
                    "patching_rect": [ 489.0, 777.0, 150.0, 20.0 ]
                }
            },
            {
                "box": {
                    "id": "obj-51",
                    "maxclass": "message",
                    "numinlets": 2,
                    "numoutlets": 1,
                    "outlettype": [ "" ],
                    "patching_rect": [ 196.59090721607208, 20.909091234207153, 71.0, 22.0 ],
                    "text": "fill sinc 20 1"
                }
            },
            {
                "box": {
                    "channels": 1,
                    "id": "obj-46",
                    "lastchannelcount": 0,
                    "maxclass": "live.gain~",
                    "numinlets": 1,
                    "numoutlets": 4,
                    "outlettype": [ "signal", "", "float", "list" ],
                    "parameter_enable": 1,
                    "patching_rect": [ 787.3417618274689, 353.8818736076355, 79.0, 136.0 ],
                    "saved_attribute_attributes": {
                        "valueof": {
                            "parameter_longname": "live.gain~[1]",
                            "parameter_mmax": 6.0,
                            "parameter_mmin": -70.0,
                            "parameter_modmode": 3,
                            "parameter_shortname": "live.gain~[1]",
                            "parameter_type": 0,
                            "parameter_unitstyle": 4
                        }
                    },
                    "varname": "live.gain~[1]"
                }
            },
            {
                "box": {
                    "id": "obj-45",
                    "maxclass": "comment",
                    "numinlets": 1,
                    "numoutlets": 0,
                    "patching_rect": [ 862.0253051519394, 347.5527597665787, 150.0, 20.0 ],
                    "text": "<live.gain~ @channels 1>"
                }
            },
            {
                "box": {
                    "id": "obj-41",
                    "maxclass": "newobj",
                    "numinlets": 1,
                    "numoutlets": 0,
                    "patching_rect": [ 865.8227734565735, 517.1730107069016, 68.0, 22.0 ],
                    "text": "send~ out2"
                }
            },
            {
                "box": {
                    "id": "obj-40",
                    "maxclass": "newobj",
                    "numinlets": 1,
                    "numoutlets": 0,
                    "patching_rect": [ 787.3417618274689, 517.1730107069016, 68.0, 22.0 ],
                    "text": "send~ out1"
                }
            },
            {
                "box": {
                    "id": "obj-31",
                    "maxclass": "newobj",
                    "numinlets": 5,
                    "numoutlets": 4,
                    "outlettype": [ "signal", "signal", "", "" ],
                    "patching_rect": [ 1005.0632779598236, 177.9325088262558, 61.0, 22.0 ],
                    "text": "adsr~ 10."
                }
            },
            {
                "box": {
                    "id": "obj-27",
                    "maxclass": "newobj",
                    "numinlets": 6,
                    "numoutlets": 1,
                    "outlettype": [ "" ],
                    "patching_rect": [ 1005.0632779598236, 112.10972487926483, 97.0, 22.0 ],
                    "text": "scale 0 127 0. 1."
                }
            },
            {
                "box": {
                    "id": "obj-26",
                    "maxclass": "newobj",
                    "numinlets": 2,
                    "numoutlets": 1,
                    "outlettype": [ "signal" ],
                    "patching_rect": [ 787.0, 291.8565579652786, 237.0632779598236, 22.0 ],
                    "text": "*~"
                }
            },
            {
                "box": {
                    "id": "obj-23",
                    "linecount": 2,
                    "maxclass": "comment",
                    "numinlets": 1,
                    "numoutlets": 0,
                    "patching_rect": [ 802.5316350460052, 226.03377401828766, 150.0, 33.0 ],
                    "text": "reads from buffer with same named argument"
                }
            },
            {
                "box": {
                    "color": [ 0.011765, 0.396078, 0.752941, 1.0 ],
                    "id": "obj-21",
                    "maxclass": "newobj",
                    "numinlets": 3,
                    "numoutlets": 1,
                    "outlettype": [ "signal" ],
                    "patching_rect": [ 787.3417618274689, 199.451495885849, 142.0, 22.0 ],
                    "text": "wave~ MyFirstWavetable"
                }
            },
            {
                "box": {
                    "id": "obj-19",
                    "maxclass": "message",
                    "numinlets": 2,
                    "numoutlets": 1,
                    "outlettype": [ "" ],
                    "patching_rect": [ 19.0, 20.0, 49.0, 22.0 ],
                    "text": "fill sin 3"
                }
            },
            {
                "box": {
                    "id": "obj-17",
                    "maxclass": "message",
                    "numinlets": 2,
                    "numoutlets": 1,
                    "outlettype": [ "" ],
                    "patching_rect": [ 939.2404940128326, 447.5527584552765, 162.0, 22.0 ],
                    "text": "set MyFirstWavetable"
                }
            },
            {
                "box": {
                    "id": "obj-15",
                    "maxclass": "comment",
                    "numinlets": 1,
                    "numoutlets": 0,
                    "patching_rect": [ 1107.5949221849442, 476.6666821241379, 97.0, 20.0 ],
                    "text": "<waveform~>"
                }
            },
            {
                "box": {
                    "buffername": "MyFirstWavetable",
                    "id": "obj-13",
                    "maxclass": "waveform~",
                    "numinlets": 5,
                    "numoutlets": 6,
                    "outlettype": [ "float", "float", "float", "float", "list", "" ],
                    "patching_rect": [ 939.2404940128326, 476.6666821241379, 162.0, 64.0 ]
                }
            },
            {
                "box": {
                    "id": "obj-9",
                    "maxclass": "newobj",
                    "numinlets": 2,
                    "numoutlets": 1,
                    "outlettype": [ "signal" ],
                    "patching_rect": [ 787.3417618274689, 150.08440792560577, 52.0, 22.0 ],
                    "text": "phasor~"
                }
            },
            {
                "box": {
                    "id": "obj-8",
                    "maxclass": "newobj",
                    "numinlets": 1,
                    "numoutlets": 1,
                    "outlettype": [ "" ],
                    "patching_rect": [ 787.3417618274689, 101.98314273357391, 32.0, 22.0 ],
                    "text": "mtof"
                }
            },
            {
                "box": {
                    "color": [ 0.960784, 0.827451, 0.156863, 1.0 ],
                    "id": "obj-33",
                    "maxclass": "newobj",
                    "numinlets": 0,
                    "numoutlets": 1,
                    "outlettype": [ "" ],
                    "patching_rect": [ 1005.0632779598236, 17.173017263412476, 33.0, 22.0 ],
                    "text": "r dur"
                }
            },
            {
                "box": {
                    "id": "obj-3",
                    "maxclass": "newobj",
                    "numinlets": 3,
                    "numoutlets": 2,
                    "outlettype": [ "float", "float" ],
                    "patching_rect": [ 787.3417618274689, 60.21099138259888, 237.0, 22.0 ],
                    "text": "makenote 100 300"
                }
            },
            {
                "box": {
                    "color": [ 0.317647, 0.654902, 0.976471, 1.0 ],
                    "id": "obj-2",
                    "maxclass": "newobj",
                    "numinlets": 0,
                    "numoutlets": 1,
                    "outlettype": [ "" ],
                    "patching_rect": [ 896.2025198936462, 17.173017263412476, 56.0, 22.0 ],
                    "text": "r velocity"
                }
            },
            {
                "box": {
                    "color": [ 0.0, 0.533333, 0.168627, 1.0 ],
                    "id": "obj-1",
                    "maxclass": "newobj",
                    "numinlets": 0,
                    "numoutlets": 1,
                    "outlettype": [ "" ],
                    "patching_rect": [ 787.3417618274689, 17.173017263412476, 41.0, 22.0 ],
                    "text": "r pitch"
                }
            }
        ],
        "lines": [
            {
                "patchline": {
                    "destination": [ "obj-3", 0 ],
                    "source": [ "obj-1", 0 ]
                }
            },
            {
                "patchline": {
                    "destination": [ "obj-49", 0 ],
                    "midpoints": [ 657.5000193119049, 212.4000060558319, 637.3480930328369, 212.4000060558319 ],
                    "source": [ "obj-10", 0 ]
                }
            },
            {
                "patchline": {
                    "destination": [ "obj-13", 0 ],
                    "source": [ "obj-17", 0 ]
                }
            },
            {
                "patchline": {
                    "destination": [ "obj-55", 0 ],
                    "order": 0,
                    "source": [ "obj-18", 0 ]
                }
            },
            {
                "patchline": {
                    "destination": [ "obj-64", 0 ],
                    "order": 1,
                    "source": [ "obj-18", 0 ]
                }
            },
            {
                "patchline": {
                    "destination": [ "obj-4", 0 ],
                    "source": [ "obj-19", 0 ]
                }
            },
            {
                "patchline": {
                    "destination": [ "obj-3", 1 ],
                    "source": [ "obj-2", 0 ]
                }
            },
            {
                "patchline": {
                    "destination": [ "obj-26", 0 ],
                    "source": [ "obj-21", 0 ]
                }
            },
            {
                "patchline": {
                    "destination": [ "obj-18", 0 ],
                    "source": [ "obj-24", 0 ]
                }
            },
            {
                "patchline": {
                    "destination": [ "obj-46", 0 ],
                    "source": [ "obj-26", 0 ]
                }
            },
            {
                "patchline": {
                    "destination": [ "obj-31", 0 ],
                    "source": [ "obj-27", 0 ]
                }
            },
            {
                "patchline": {
                    "destination": [ "obj-27", 0 ],
                    "source": [ "obj-3", 1 ]
                }
            },
            {
                "patchline": {
                    "destination": [ "obj-8", 0 ],
                    "source": [ "obj-3", 0 ]
                }
            },
            {
                "patchline": {
                    "destination": [ "obj-26", 1 ],
                    "source": [ "obj-31", 0 ]
                }
            },
            {
                "patchline": {
                    "destination": [ "obj-3", 2 ],
                    "source": [ "obj-33", 0 ]
                }
            },
            {
                "patchline": {
                    "destination": [ "obj-40", 0 ],
                    "order": 1,
                    "source": [ "obj-46", 0 ]
                }
            },
            {
                "patchline": {
                    "destination": [ "obj-41", 0 ],
                    "midpoints": [ 796.8417618274689, 504.17301070690155, 875.3227734565735, 504.17301070690155 ],
                    "order": 0,
                    "source": [ "obj-46", 0 ]
                }
            },
            {
                "patchline": {
                    "destination": [ "obj-10", 0 ],
                    "source": [ "obj-48", 2 ]
                }
            },
            {
                "patchline": {
                    "destination": [ "obj-49", 0 ],
                    "source": [ "obj-48", 1 ]
                }
            },
            {
                "patchline": {
                    "destination": [ "obj-18", 2 ],
                    "source": [ "obj-49", 0 ]
                }
            },
            {
                "patchline": {
                    "destination": [ "obj-18", 1 ],
                    "source": [ "obj-50", 0 ]
                }
            },
            {
                "patchline": {
                    "destination": [ "obj-5", 0 ],
                    "source": [ "obj-51", 0 ]
                }
            },
            {
                "patchline": {
                    "destination": [ "obj-50", 0 ],
                    "source": [ "obj-52", 1 ]
                }
            },
            {
                "patchline": {
                    "destination": [ "obj-7", 0 ],
                    "source": [ "obj-52", 2 ]
                }
            },
            {
                "patchline": {
                    "destination": [ "obj-48", 0 ],
                    "order": 0,
                    "source": [ "obj-54", 0 ]
                }
            },
            {
                "patchline": {
                    "destination": [ "obj-52", 0 ],
                    "order": 1,
                    "source": [ "obj-54", 0 ]
                }
            },
            {
                "patchline": {
                    "destination": [ "obj-58", 0 ],
                    "source": [ "obj-62", 0 ]
                }
            },
            {
                "patchline": {
                    "destination": [ "obj-65", 0 ],
                    "source": [ "obj-64", 0 ]
                }
            },
            {
                "patchline": {
                    "destination": [ "obj-67", 1 ],
                    "source": [ "obj-64", 1 ]
                }
            },
            {
                "patchline": {
                    "destination": [ "obj-66", 0 ],
                    "source": [ "obj-65", 2 ]
                }
            },
            {
                "patchline": {
                    "destination": [ "obj-63", 0 ],
                    "source": [ "obj-66", 0 ]
                }
            },
            {
                "patchline": {
                    "destination": [ "obj-67", 0 ],
                    "source": [ "obj-66", 1 ]
                }
            },
            {
                "patchline": {
                    "destination": [ "obj-63", 1 ],
                    "source": [ "obj-67", 0 ]
                }
            },
            {
                "patchline": {
                    "destination": [ "obj-50", 0 ],
                    "midpoints": [ 532.1666822433472, 212.4000060558319, 512.1666816473007, 212.4000060558319 ],
                    "source": [ "obj-7", 0 ]
                }
            },
            {
                "patchline": {
                    "destination": [ "obj-9", 0 ],
                    "source": [ "obj-8", 0 ]
                }
            },
            {
                "patchline": {
                    "destination": [ "obj-21", 0 ],
                    "source": [ "obj-9", 0 ]
                }
            }
        ],
        "parameters": {
            "obj-24": [ "live.dial", "weight", 0 ],
            "obj-46": [ "live.gain~[1]", "live.gain~[1]", 0 ],
            "parameterbanks": {
                "0": {
                    "index": 0,
                    "name": "",
                    "parameters": [ "-", "-", "-", "-", "-", "-", "-", "-" ],
                    "buttons": [ "-", "-", "-", "-", "-", "-", "-", "-" ]
                }
            },
            "inherited_shortname": 1
        },
        "autosave": 0
    }
}