{
    "patcher": {
        "fileversion": 1,
        "appversion": {
            "major": 9,
            "minor": 1,
            "revision": 2,
            "architecture": "x64",
            "modernui": 1
        },
        "classnamespace": "box",
        "rect": [ 88.0, 103.0, 896.0, 598.0 ],
        "boxes": [
            {
                "box": {
                    "id": "obj-9",
                    "linecount": 3,
                    "maxclass": "comment",
                    "numinlets": 1,
                    "numoutlets": 0,
                    "patching_rect": [ 127.0, 29.0, 103.5, 47.0 ],
                    "text": "<b> triggers the output to the line~ object"
                }
            },
            {
                "box": {
                    "id": "obj-6",
                    "linecount": 2,
                    "maxclass": "comment",
                    "numinlets": 1,
                    "numoutlets": 0,
                    "patching_rect": [ 295.5, 30.0, 221.0, 33.0 ],
                    "text": "length of the \"note\" duration of x axis default = 1000 ms"
                }
            },
            {
                "box": {
                    "id": "obj-2",
                    "maxclass": "message",
                    "numinlets": 2,
                    "numoutlets": 1,
                    "outlettype": [ "" ],
                    "patching_rect": [ 243.5, 68.0, 81.0, 22.0 ],
                    "text": "setdomain $1"
                }
            },
            {
                "box": {
                    "color": [ 0.960784, 0.827451, 0.156863, 1.0 ],
                    "id": "obj-19",
                    "maxclass": "newobj",
                    "numinlets": 1,
                    "numoutlets": 1,
                    "outlettype": [ "signal" ],
                    "patching_rect": [ 310.0, 257.0, 101.0, 22.0 ],
                    "text": "receive~ toADSR"
                }
            },
            {
                "box": {
                    "id": "obj-29",
                    "maxclass": "newobj",
                    "numinlets": 1,
                    "numoutlets": 0,
                    "patching_rect": [ 351.6666694879532, 572.0000170469284, 68.0, 22.0 ],
                    "text": "send~ out2"
                }
            },
            {
                "box": {
                    "id": "obj-28",
                    "maxclass": "newobj",
                    "numinlets": 1,
                    "numoutlets": 0,
                    "patching_rect": [ 257.0, 572.0000170469284, 68.0, 22.0 ],
                    "text": "send~ out1"
                }
            },
            {
                "box": {
                    "id": "obj-27",
                    "maxclass": "newobj",
                    "numinlets": 2,
                    "numoutlets": 1,
                    "outlettype": [ "signal" ],
                    "patching_rect": [ 257.0, 513.3333486318588, 54.0, 22.0 ],
                    "text": "*~ 0.707"
                }
            },
            {
                "box": {
                    "id": "obj-17",
                    "maxclass": "comment",
                    "numinlets": 1,
                    "numoutlets": 0,
                    "patching_rect": [ 101.0, 217.0, 207.0, 20.0 ],
                    "text": "0-------------------------------------domain"
                }
            },
            {
                "box": {
                    "id": "obj-15",
                    "maxclass": "newobj",
                    "numinlets": 2,
                    "numoutlets": 2,
                    "outlettype": [ "signal", "bang" ],
                    "patching_rect": [ 173.3333384990692, 250.66667413711548, 34.0, 22.0 ],
                    "text": "line~"
                }
            },
            {
                "box": {
                    "id": "obj-14",
                    "maxclass": "newobj",
                    "numinlets": 2,
                    "numoutlets": 1,
                    "outlettype": [ "signal" ],
                    "patching_rect": [ 257.0, 301.0, 29.5, 22.0 ],
                    "text": "*~"
                }
            },
            {
                "box": {
                    "id": "obj-13",
                    "lastchannelcount": 0,
                    "maxclass": "live.gain~",
                    "numinlets": 2,
                    "numoutlets": 5,
                    "outlettype": [ "signal", "signal", "", "float", "list" ],
                    "parameter_enable": 1,
                    "patching_rect": [ 257.0, 352.0, 38.0, 126.0 ],
                    "saved_attribute_attributes": {
                        "valueof": {
                            "parameter_longname": "live.gain~",
                            "parameter_mmax": 6.0,
                            "parameter_mmin": -70.0,
                            "parameter_modmode": 3,
                            "parameter_shortname": "live.gain~",
                            "parameter_type": 0,
                            "parameter_unitstyle": 4
                        }
                    },
                    "varname": "live.gain~"
                }
            },
            {
                "box": {
                    "format": 6,
                    "id": "obj-8",
                    "maxclass": "flonum",
                    "numinlets": 1,
                    "numoutlets": 2,
                    "outlettype": [ "", "bang" ],
                    "parameter_enable": 0,
                    "patching_rect": [ 243.5, 30.0, 50.0, 22.0 ]
                }
            },
            {
                "box": {
                    "id": "obj-5",
                    "maxclass": "button",
                    "numinlets": 1,
                    "numoutlets": 1,
                    "outlettype": [ "bang" ],
                    "parameter_enable": 0,
                    "patching_rect": [ 101.0, 29.0, 24.0, 24.0 ]
                }
            },
            {
                "box": {
                    "addpoints": [ 0.0, 0.0, 0, 42.5531914893617, 0.5066666666666667, 0, 90.42553191489361, 1.0, 0, 234.04255319148936, 0.17333333333333334, 0, 292.5531914893617, 0.6533333333333333, 0, 313.82978723404256, 0.8666666666666667, 0, 409.5744680851064, 0.18666666666666668, 0, 473.40425531914894, 0.4266666666666667, 0, 606.3829787234042, 0.41333333333333333, 0, 654.2553191489362, 0.13333333333333333, 0, 686.1702127659574, 0.96, 0, 824.468085106383, 0.2, 0, 851.063829787234, 0.84, 0, 968.0851063829788, 0.9866666666666667, 0, 989.3617021276596, 0.0, 0 ],
                    "classic_curve": 1,
                    "id": "obj-3",
                    "maxclass": "function",
                    "numinlets": 1,
                    "numoutlets": 4,
                    "outlettype": [ "float", "", "", "bang" ],
                    "parameter_enable": 0,
                    "patching_rect": [ 101.0, 115.0, 200.0, 100.0 ]
                }
            }
        ],
        "lines": [
            {
                "patchline": {
                    "destination": [ "obj-27", 0 ],
                    "source": [ "obj-13", 0 ]
                }
            },
            {
                "patchline": {
                    "destination": [ "obj-13", 0 ],
                    "source": [ "obj-14", 0 ]
                }
            },
            {
                "patchline": {
                    "destination": [ "obj-14", 0 ],
                    "source": [ "obj-15", 0 ]
                }
            },
            {
                "patchline": {
                    "destination": [ "obj-14", 1 ],
                    "source": [ "obj-19", 0 ]
                }
            },
            {
                "patchline": {
                    "destination": [ "obj-3", 0 ],
                    "source": [ "obj-2", 0 ]
                }
            },
            {
                "patchline": {
                    "destination": [ "obj-28", 0 ],
                    "order": 1,
                    "source": [ "obj-27", 0 ]
                }
            },
            {
                "patchline": {
                    "destination": [ "obj-29", 0 ],
                    "order": 0,
                    "source": [ "obj-27", 0 ]
                }
            },
            {
                "patchline": {
                    "destination": [ "obj-15", 0 ],
                    "source": [ "obj-3", 1 ]
                }
            },
            {
                "patchline": {
                    "destination": [ "obj-3", 0 ],
                    "source": [ "obj-5", 0 ]
                }
            },
            {
                "patchline": {
                    "destination": [ "obj-2", 0 ],
                    "source": [ "obj-8", 0 ]
                }
            }
        ],
        "parameters": {
            "obj-13": [ "live.gain~", "live.gain~", 0 ],
            "inherited_shortname": 1
        },
        "autosave": 0
    }
}