{
    "patcher": {
        "fileversion": 1,
        "appversion": {
            "major": 9,
            "minor": 1,
            "revision": 2,
            "architecture": "x64",
            "modernui": 1
        },
        "classnamespace": "box",
        "rect": [ 234.0, 115.0, 896.0, 598.0 ],
        "boxes": [
            {
                "box": {
                    "format": 6,
                    "id": "obj-87",
                    "maxclass": "flonum",
                    "numinlets": 1,
                    "numoutlets": 2,
                    "outlettype": [ "", "bang" ],
                    "parameter_enable": 0,
                    "patching_rect": [ 753.0000224113464, 719.0, 50.0, 22.0 ]
                }
            },
            {
                "box": {
                    "id": "obj-85",
                    "maxclass": "comment",
                    "numinlets": 1,
                    "numoutlets": 0,
                    "patching_rect": [ 810.1666620373726, 720.0, 310.6666759252548, 20.0 ],
                    "text": "frequency of the control signal (sawtooth phasor)"
                }
            },
            {
                "box": {
                    "id": "obj-83",
                    "maxclass": "comment",
                    "numinlets": 1,
                    "numoutlets": 0,
                    "patching_rect": [ 818.6666910648346, 752.5, 202.666672706604, 20.0 ],
                    "text": "<m> restarts at phase of 0."
                }
            },
            {
                "box": {
                    "id": "obj-81",
                    "maxclass": "message",
                    "numinlets": 2,
                    "numoutlets": 1,
                    "outlettype": [ "" ],
                    "patching_rect": [ 785.0000224113464, 751.5, 29.5, 22.0 ],
                    "text": "0."
                }
            },
            {
                "box": {
                    "color": [ 0.701961, 0.415686, 0.886275, 1.0 ],
                    "id": "obj-78",
                    "maxclass": "newobj",
                    "numinlets": 1,
                    "numoutlets": 0,
                    "patching_rect": [ 752.0000224113464, 828.0, 70.0, 22.0 ],
                    "text": "send~ sync"
                }
            },
            {
                "box": {
                    "id": "obj-77",
                    "maxclass": "newobj",
                    "numinlets": 2,
                    "numoutlets": 1,
                    "outlettype": [ "signal" ],
                    "patching_rect": [ 752.0000224113464, 790.6666902303696, 52.0, 22.0 ],
                    "text": "phasor~"
                }
            },
            {
                "box": {
                    "id": "obj-76",
                    "linecount": 6,
                    "maxclass": "comment",
                    "numinlets": 1,
                    "numoutlets": 0,
                    "patching_rect": [ 560.0000166893005, 840.0000250339508, 150.0, 87.0 ],
                    "text": "duty cycle (0.-1. slants the waveform left or right), alters the timbre because the harmonics change with different slopes and sharp turns"
                }
            },
            {
                "box": {
                    "format": 6,
                    "id": "obj-74",
                    "maxclass": "flonum",
                    "numinlets": 1,
                    "numoutlets": 2,
                    "outlettype": [ "", "bang" ],
                    "parameter_enable": 0,
                    "patching_rect": [ 468.0000139474869, 830.0, 50.0, 22.0 ]
                }
            },
            {
                "box": {
                    "id": "obj-71",
                    "maxclass": "comment",
                    "numinlets": 1,
                    "numoutlets": 0,
                    "patching_rect": [ 342.5, 830.0, 150.0, 20.0 ],
                    "text": "frequency in hz"
                }
            },
            {
                "box": {
                    "color": [ 0.439216, 0.74902, 0.254902, 1.0 ],
                    "id": "obj-69",
                    "maxclass": "newobj",
                    "numinlets": 1,
                    "numoutlets": 0,
                    "patching_rect": [ 468.0000139474869, 878.6666928529739, 70.0, 22.0 ],
                    "text": "s duty.cycle"
                }
            },
            {
                "box": {
                    "id": "obj-66",
                    "linecount": 9,
                    "maxclass": "comment",
                    "numinlets": 1,
                    "numoutlets": 0,
                    "patching_rect": [ 1454.0, 177.0, 183.0, 127.0 ],
                    "presentation_linecount": 9,
                    "text": "pink noise\nequal power across all octaves\nhigher frequencies decline at a\nrate of -3dB per octave\n\nreference signal for mixing in audio production (closer to the human ear's response as a result of measuring in octaves)"
                }
            },
            {
                "box": {
                    "id": "obj-65",
                    "linecount": 4,
                    "maxclass": "comment",
                    "numinlets": 1,
                    "numoutlets": 0,
                    "patching_rect": [ 1176.0, 184.0, 183.0, 60.0 ],
                    "presentation_linecount": 4,
                    "text": "white noise\nequal power (amplitude)\nacross all frequency\nvalues "
                }
            },
            {
                "box": {
                    "id": "obj-64",
                    "linecount": 5,
                    "maxclass": "comment",
                    "numinlets": 1,
                    "numoutlets": 0,
                    "patching_rect": [ 874.0, 177.0, 183.0, 74.0 ],
                    "presentation_linecount": 5,
                    "text": "square wave\nodd harmonics\nhigh harmonics roll off gradually\nbasis for harmonic distortion\nbasis for an electric guitar sound"
                }
            },
            {
                "box": {
                    "id": "obj-63",
                    "linecount": 4,
                    "maxclass": "comment",
                    "numinlets": 1,
                    "numoutlets": 0,
                    "patching_rect": [ 618.5, 177.0, 183.0, 60.0 ],
                    "presentation_linecount": 4,
                    "text": "sawtooth wave\nall harmonics\nmore rich in harmonics\nbasis for voice synthesizer"
                }
            },
            {
                "box": {
                    "id": "obj-62",
                    "linecount": 4,
                    "maxclass": "comment",
                    "numinlets": 1,
                    "numoutlets": 0,
                    "patching_rect": [ 288.0, 177.0, 183.0, 60.0 ],
                    "presentation_linecount": 6,
                    "text": "triangle wave\nodd harmonics\nsounds more like a clarinet\nhigh harmonics roll off steeply"
                }
            },
            {
                "box": {
                    "id": "obj-61",
                    "linecount": 4,
                    "maxclass": "comment",
                    "numinlets": 1,
                    "numoutlets": 0,
                    "patching_rect": [ 57.0, 177.0, 150.0, 60.0 ],
                    "text": "sine wave\npure (single frequency)\nno artefacts\nno harmonics"
                }
            },
            {
                "box": {
                    "id": "obj-59",
                    "linecount": 2,
                    "maxclass": "message",
                    "numinlets": 2,
                    "numoutlets": 1,
                    "outlettype": [ "" ],
                    "patching_rect": [ 114.0, 811.0, 50.0, 35.0 ],
                    "text": "1 1 0.208"
                }
            },
            {
                "box": {
                    "id": "obj-55",
                    "linecount": 3,
                    "maxclass": "comment",
                    "numinlets": 1,
                    "numoutlets": 0,
                    "patching_rect": [ 158.0, 739.0, 150.0, 47.0 ],
                    "presentation_linecount": 3,
                    "text": "L (out1)\nR (out2)\ntoADSR"
                }
            },
            {
                "box": {
                    "id": "obj-43",
                    "maxclass": "comment",
                    "numinlets": 1,
                    "numoutlets": 0,
                    "patching_rect": [ 58.0, 720.0, 150.0, 20.0 ],
                    "text": "1   2   3   4   5   6"
                }
            },
            {
                "box": {
                    "id": "obj-42",
                    "maxclass": "comment",
                    "numinlets": 1,
                    "numoutlets": 0,
                    "patching_rect": [ 58.0, 698.0, 150.0, 20.0 ],
                    "text": "inputs"
                }
            },
            {
                "box": {
                    "autosize": 1,
                    "columns": 6,
                    "dialmode": 2,
                    "id": "obj-40",
                    "maxclass": "matrixctrl",
                    "numinlets": 1,
                    "numoutlets": 2,
                    "outlettype": [ "list", "list" ],
                    "parameter_enable": 0,
                    "patching_rect": [ 58.0, 739.0, 98.0, 50.0 ],
                    "rows": 3
                }
            },
            {
                "box": {
                    "id": "obj-24",
                    "maxclass": "comment",
                    "numinlets": 1,
                    "numoutlets": 0,
                    "patching_rect": [ 169.0, 720.0, 360.0, 20.0 ],
                    "text": "<matrixctrl @autosize 1 @columns 6 @rows 3 @dialmode 2>"
                }
            },
            {
                "box": {
                    "id": "obj-12",
                    "maxclass": "number",
                    "numinlets": 1,
                    "numoutlets": 2,
                    "outlettype": [ "", "bang" ],
                    "parameter_enable": 0,
                    "patching_rect": [ 1014.0, 396.0, 50.0, 22.0 ]
                }
            },
            {
                "box": {
                    "color": [ 0.960784, 0.827451, 0.156863, 1.0 ],
                    "id": "obj-8",
                    "maxclass": "newobj",
                    "numinlets": 1,
                    "numoutlets": 0,
                    "patching_rect": [ 964.6666666666666, 668.0, 88.0, 22.0 ],
                    "text": "send~ toADSR"
                }
            },
            {
                "box": {
                    "id": "obj-5",
                    "maxclass": "newobj",
                    "numinlets": 1,
                    "numoutlets": 0,
                    "patching_rect": [ 511.33333333333326, 668.0, 68.0, 22.0 ],
                    "text": "send~ out2"
                }
            },
            {
                "box": {
                    "id": "obj-4",
                    "maxclass": "newobj",
                    "numinlets": 1,
                    "numoutlets": 0,
                    "patching_rect": [ 58.0, 674.0, 68.0, 22.0 ],
                    "text": "send~ out1"
                }
            },
            {
                "box": {
                    "id": "obj-54",
                    "maxclass": "newobj",
                    "numinlets": 6,
                    "numoutlets": 4,
                    "outlettype": [ "signal", "signal", "signal", "" ],
                    "patching_rect": [ 58.0, 594.0, 1379.0, 22.0 ],
                    "text": "matrix~ 6 3"
                }
            },
            {
                "box": {
                    "id": "obj-49",
                    "maxclass": "comment",
                    "numinlets": 1,
                    "numoutlets": 0,
                    "patching_rect": [ 1576.0, 450.0, 150.0, 20.0 ],
                    "text": "<spectroscope~>"
                }
            },
            {
                "box": {
                    "id": "obj-50",
                    "maxclass": "comment",
                    "numinlets": 1,
                    "numoutlets": 0,
                    "patching_rect": [ 1568.0, 344.0, 150.0, 20.0 ],
                    "text": "<scope~>"
                }
            },
            {
                "box": {
                    "id": "obj-51",
                    "maxclass": "spectroscope~",
                    "numinlets": 2,
                    "numoutlets": 1,
                    "outlettype": [ "" ],
                    "patching_rect": [ 1476.0, 472.0, 223.0, 81.0 ]
                }
            },
            {
                "box": {
                    "id": "obj-52",
                    "maxclass": "scope~",
                    "numinlets": 2,
                    "numoutlets": 0,
                    "patching_rect": [ 1500.0, 368.0, 198.0, 63.0 ]
                }
            },
            {
                "box": {
                    "color": [ 0.784314, 0.145098, 0.023529, 1.0 ],
                    "id": "obj-53",
                    "maxclass": "newobj",
                    "numinlets": 1,
                    "numoutlets": 1,
                    "outlettype": [ "signal" ],
                    "patching_rect": [ 1454.0, 320.0, 38.0, 22.0 ],
                    "text": "pink~"
                }
            },
            {
                "box": {
                    "id": "obj-44",
                    "maxclass": "comment",
                    "numinlets": 1,
                    "numoutlets": 0,
                    "patching_rect": [ 1298.0, 450.0, 150.0, 20.0 ],
                    "text": "<spectroscope~>"
                }
            },
            {
                "box": {
                    "id": "obj-45",
                    "maxclass": "comment",
                    "numinlets": 1,
                    "numoutlets": 0,
                    "patching_rect": [ 1290.0, 344.0, 150.0, 20.0 ],
                    "text": "<scope~>"
                }
            },
            {
                "box": {
                    "id": "obj-46",
                    "maxclass": "spectroscope~",
                    "numinlets": 2,
                    "numoutlets": 1,
                    "outlettype": [ "" ],
                    "patching_rect": [ 1198.0, 472.0, 223.0, 81.0 ]
                }
            },
            {
                "box": {
                    "id": "obj-47",
                    "maxclass": "scope~",
                    "numinlets": 2,
                    "numoutlets": 0,
                    "patching_rect": [ 1222.0, 368.0, 198.0, 63.0 ]
                }
            },
            {
                "box": {
                    "color": [ 0.784314, 0.145098, 0.023529, 1.0 ],
                    "id": "obj-48",
                    "maxclass": "newobj",
                    "numinlets": 1,
                    "numoutlets": 1,
                    "outlettype": [ "signal" ],
                    "patching_rect": [ 1176.0, 320.0, 44.0, 22.0 ],
                    "text": "noise~"
                }
            },
            {
                "box": {
                    "color": [ 0.701961, 0.415686, 0.886275, 1.0 ],
                    "id": "obj-32",
                    "maxclass": "newobj",
                    "numinlets": 1,
                    "numoutlets": 1,
                    "outlettype": [ "signal" ],
                    "patching_rect": [ 1074.0, 270.0, 82.0, 22.0 ],
                    "text": "receive~ sync"
                }
            },
            {
                "box": {
                    "color": [ 0.439216, 0.74902, 0.254902, 1.0 ],
                    "id": "obj-33",
                    "maxclass": "newobj",
                    "numinlets": 0,
                    "numoutlets": 1,
                    "outlettype": [ "" ],
                    "patching_rect": [ 974.0, 270.0, 68.0, 22.0 ],
                    "text": "r duty.cycle"
                }
            },
            {
                "box": {
                    "color": [ 0.317647, 0.654902, 0.976471, 1.0 ],
                    "id": "obj-34",
                    "maxclass": "newobj",
                    "numinlets": 0,
                    "numoutlets": 1,
                    "outlettype": [ "" ],
                    "patching_rect": [ 874.0, 270.0, 37.0, 22.0 ],
                    "text": "r freq"
                }
            },
            {
                "box": {
                    "id": "obj-35",
                    "maxclass": "comment",
                    "numinlets": 1,
                    "numoutlets": 0,
                    "patching_rect": [ 996.0, 450.0, 150.0, 20.0 ],
                    "text": "<spectroscope~>"
                }
            },
            {
                "box": {
                    "id": "obj-36",
                    "maxclass": "comment",
                    "numinlets": 1,
                    "numoutlets": 0,
                    "patching_rect": [ 988.0, 344.0, 150.0, 20.0 ],
                    "text": "<scope~>"
                }
            },
            {
                "box": {
                    "id": "obj-37",
                    "maxclass": "spectroscope~",
                    "numinlets": 2,
                    "numoutlets": 1,
                    "outlettype": [ "" ],
                    "patching_rect": [ 896.0, 472.0, 223.0, 81.0 ]
                }
            },
            {
                "box": {
                    "id": "obj-38",
                    "maxclass": "scope~",
                    "numinlets": 2,
                    "numoutlets": 0,
                    "patching_rect": [ 920.0, 368.0, 198.0, 63.0 ]
                }
            },
            {
                "box": {
                    "color": [ 0.784314, 0.145098, 0.023529, 1.0 ],
                    "id": "obj-39",
                    "maxclass": "newobj",
                    "numinlets": 3,
                    "numoutlets": 1,
                    "outlettype": [ "signal" ],
                    "patching_rect": [ 874.0, 320.0, 219.00000596046448, 22.0 ],
                    "text": "rect~ 440."
                }
            },
            {
                "box": {
                    "color": [ 0.439216, 0.74902, 0.254902, 1.0 ],
                    "id": "obj-25",
                    "maxclass": "newobj",
                    "numinlets": 0,
                    "numoutlets": 1,
                    "outlettype": [ "" ],
                    "patching_rect": [ 676.0, 270.0, 68.0, 22.0 ],
                    "text": "r duty.cycle"
                }
            },
            {
                "box": {
                    "color": [ 0.317647, 0.654902, 0.976471, 1.0 ],
                    "id": "obj-26",
                    "maxclass": "newobj",
                    "numinlets": 0,
                    "numoutlets": 1,
                    "outlettype": [ "" ],
                    "patching_rect": [ 576.0, 270.0, 37.0, 22.0 ],
                    "text": "r freq"
                }
            },
            {
                "box": {
                    "id": "obj-27",
                    "maxclass": "comment",
                    "numinlets": 1,
                    "numoutlets": 0,
                    "patching_rect": [ 698.0, 450.0, 150.0, 20.0 ],
                    "text": "<spectroscope~>"
                }
            },
            {
                "box": {
                    "id": "obj-28",
                    "maxclass": "comment",
                    "numinlets": 1,
                    "numoutlets": 0,
                    "patching_rect": [ 692.0, 344.0, 150.0, 20.0 ],
                    "text": "<scope~>"
                }
            },
            {
                "box": {
                    "id": "obj-29",
                    "maxclass": "spectroscope~",
                    "numinlets": 2,
                    "numoutlets": 1,
                    "outlettype": [ "" ],
                    "patching_rect": [ 598.0, 472.0, 223.0, 81.0 ]
                }
            },
            {
                "box": {
                    "id": "obj-30",
                    "maxclass": "scope~",
                    "numinlets": 2,
                    "numoutlets": 0,
                    "patching_rect": [ 622.0, 368.0, 198.0, 63.0 ]
                }
            },
            {
                "box": {
                    "color": [ 0.784314, 0.145098, 0.023529, 1.0 ],
                    "id": "obj-31",
                    "maxclass": "newobj",
                    "numinlets": 2,
                    "numoutlets": 1,
                    "outlettype": [ "signal" ],
                    "patching_rect": [ 576.0, 320.0, 119.00000298023224, 22.0 ],
                    "text": "saw~ 440."
                }
            },
            {
                "box": {
                    "color": [ 0.701961, 0.415686, 0.886275, 1.0 ],
                    "id": "obj-23",
                    "maxclass": "newobj",
                    "numinlets": 1,
                    "numoutlets": 1,
                    "outlettype": [ "signal" ],
                    "patching_rect": [ 484.0, 270.0, 82.0, 22.0 ],
                    "text": "receive~ sync"
                }
            },
            {
                "box": {
                    "color": [ 0.439216, 0.74902, 0.254902, 1.0 ],
                    "id": "obj-22",
                    "maxclass": "newobj",
                    "numinlets": 0,
                    "numoutlets": 1,
                    "outlettype": [ "" ],
                    "patching_rect": [ 384.0, 270.0, 68.0, 22.0 ],
                    "text": "r duty.cycle"
                }
            },
            {
                "box": {
                    "color": [ 0.317647, 0.654902, 0.976471, 1.0 ],
                    "id": "obj-14",
                    "maxclass": "newobj",
                    "numinlets": 0,
                    "numoutlets": 1,
                    "outlettype": [ "" ],
                    "patching_rect": [ 284.0, 270.0, 37.0, 22.0 ],
                    "text": "r freq"
                }
            },
            {
                "box": {
                    "id": "obj-15",
                    "maxclass": "comment",
                    "numinlets": 1,
                    "numoutlets": 0,
                    "patching_rect": [ 406.0, 450.0, 150.0, 20.0 ],
                    "text": "<spectroscope~>"
                }
            },
            {
                "box": {
                    "id": "obj-16",
                    "maxclass": "comment",
                    "numinlets": 1,
                    "numoutlets": 0,
                    "patching_rect": [ 398.0, 344.0, 150.0, 20.0 ],
                    "text": "<scope~>"
                }
            },
            {
                "box": {
                    "id": "obj-17",
                    "maxclass": "spectroscope~",
                    "numinlets": 2,
                    "numoutlets": 1,
                    "outlettype": [ "" ],
                    "patching_rect": [ 306.0, 472.0, 223.0, 81.0 ]
                }
            },
            {
                "box": {
                    "id": "obj-18",
                    "maxclass": "scope~",
                    "numinlets": 2,
                    "numoutlets": 0,
                    "patching_rect": [ 332.0, 368.0, 193.6666613817215, 62.999987721443176 ]
                }
            },
            {
                "box": {
                    "color": [ 0.784314, 0.145098, 0.023529, 1.0 ],
                    "id": "obj-19",
                    "maxclass": "newobj",
                    "numinlets": 3,
                    "numoutlets": 1,
                    "outlettype": [ "signal" ],
                    "patching_rect": [ 284.0, 320.0, 219.0, 22.0 ],
                    "text": "tri~ 440."
                }
            },
            {
                "box": {
                    "format": 6,
                    "id": "obj-13",
                    "maxclass": "flonum",
                    "numinlets": 1,
                    "numoutlets": 2,
                    "outlettype": [ "", "bang" ],
                    "parameter_enable": 0,
                    "patching_rect": [ 288.0, 828.0, 50.0, 22.0 ]
                }
            },
            {
                "box": {
                    "color": [ 0.317647, 0.654902, 0.976471, 1.0 ],
                    "id": "obj-11",
                    "maxclass": "newobj",
                    "numinlets": 1,
                    "numoutlets": 0,
                    "patching_rect": [ 288.0, 874.0, 39.0, 22.0 ],
                    "text": "s freq"
                }
            },
            {
                "box": {
                    "color": [ 0.317647, 0.654902, 0.976471, 1.0 ],
                    "id": "obj-10",
                    "maxclass": "newobj",
                    "numinlets": 0,
                    "numoutlets": 1,
                    "outlettype": [ "" ],
                    "patching_rect": [ 58.0, 270.0, 37.0, 22.0 ],
                    "text": "r freq"
                }
            },
            {
                "box": {
                    "id": "obj-7",
                    "maxclass": "comment",
                    "numinlets": 1,
                    "numoutlets": 0,
                    "patching_rect": [ 154.0, 450.0, 150.0, 20.0 ],
                    "text": "<spectroscope~>"
                }
            },
            {
                "box": {
                    "id": "obj-6",
                    "maxclass": "comment",
                    "numinlets": 1,
                    "numoutlets": 0,
                    "patching_rect": [ 178.0, 344.0, 85.99999439716339, 20.0 ],
                    "text": "<scope~>"
                }
            },
            {
                "box": {
                    "id": "obj-3",
                    "maxclass": "spectroscope~",
                    "numinlets": 2,
                    "numoutlets": 1,
                    "outlettype": [ "" ],
                    "patching_rect": [ 80.0, 472.0, 200.0, 81.0 ]
                }
            },
            {
                "box": {
                    "id": "obj-2",
                    "maxclass": "scope~",
                    "numinlets": 2,
                    "numoutlets": 0,
                    "patching_rect": [ 104.0, 368.0, 172.00000512599945, 62.999987721443176 ]
                }
            },
            {
                "box": {
                    "color": [ 0.784314, 0.145098, 0.023529, 1.0 ],
                    "id": "obj-1",
                    "maxclass": "newobj",
                    "numinlets": 2,
                    "numoutlets": 1,
                    "outlettype": [ "signal" ],
                    "patching_rect": [ 58.0, 320.0, 70.0, 22.0 ],
                    "text": "cycle~ 440."
                }
            }
        ],
        "lines": [
            {
                "patchline": {
                    "destination": [ "obj-2", 0 ],
                    "midpoints": [ 67.5, 349.3333216905594, 113.5, 349.3333216905594 ],
                    "order": 0,
                    "source": [ "obj-1", 0 ]
                }
            },
            {
                "patchline": {
                    "destination": [ "obj-3", 0 ],
                    "midpoints": [ 67.5, 422.8333216905594, 89.5, 422.8333216905594 ],
                    "order": 1,
                    "source": [ "obj-1", 0 ]
                }
            },
            {
                "patchline": {
                    "destination": [ "obj-54", 0 ],
                    "order": 2,
                    "source": [ "obj-1", 0 ]
                }
            },
            {
                "patchline": {
                    "destination": [ "obj-1", 0 ],
                    "source": [ "obj-10", 0 ]
                }
            },
            {
                "patchline": {
                    "destination": [ "obj-11", 0 ],
                    "source": [ "obj-13", 0 ]
                }
            },
            {
                "patchline": {
                    "destination": [ "obj-19", 0 ],
                    "source": [ "obj-14", 0 ]
                }
            },
            {
                "patchline": {
                    "destination": [ "obj-17", 0 ],
                    "midpoints": [ 293.5, 422.8333251476288, 315.5, 422.8333251476288 ],
                    "order": 2,
                    "source": [ "obj-19", 0 ]
                }
            },
            {
                "patchline": {
                    "destination": [ "obj-18", 0 ],
                    "midpoints": [ 293.5, 349.3333251476288, 341.5, 349.3333251476288 ],
                    "order": 1,
                    "source": [ "obj-19", 0 ]
                }
            },
            {
                "patchline": {
                    "destination": [ "obj-54", 1 ],
                    "order": 0,
                    "source": [ "obj-19", 0 ]
                }
            },
            {
                "patchline": {
                    "destination": [ "obj-19", 1 ],
                    "source": [ "obj-22", 0 ]
                }
            },
            {
                "patchline": {
                    "destination": [ "obj-19", 2 ],
                    "source": [ "obj-23", 0 ]
                }
            },
            {
                "patchline": {
                    "destination": [ "obj-31", 1 ],
                    "source": [ "obj-25", 0 ]
                }
            },
            {
                "patchline": {
                    "destination": [ "obj-31", 0 ],
                    "source": [ "obj-26", 0 ]
                }
            },
            {
                "patchline": {
                    "destination": [ "obj-29", 0 ],
                    "midpoints": [ 585.5, 423.4999933242798, 607.5, 423.4999933242798 ],
                    "order": 2,
                    "source": [ "obj-31", 0 ]
                }
            },
            {
                "patchline": {
                    "destination": [ "obj-30", 0 ],
                    "midpoints": [ 585.5, 349.9999933242798, 631.5, 349.9999933242798 ],
                    "order": 0,
                    "source": [ "obj-31", 0 ]
                }
            },
            {
                "patchline": {
                    "destination": [ "obj-54", 2 ],
                    "order": 1,
                    "source": [ "obj-31", 0 ]
                }
            },
            {
                "patchline": {
                    "destination": [ "obj-39", 2 ],
                    "source": [ "obj-32", 0 ]
                }
            },
            {
                "patchline": {
                    "destination": [ "obj-39", 1 ],
                    "source": [ "obj-33", 0 ]
                }
            },
            {
                "patchline": {
                    "destination": [ "obj-39", 0 ],
                    "source": [ "obj-34", 0 ]
                }
            },
            {
                "patchline": {
                    "destination": [ "obj-37", 0 ],
                    "midpoints": [ 883.5, 424.1666601896286, 905.5, 424.1666601896286 ],
                    "order": 1,
                    "source": [ "obj-39", 0 ]
                }
            },
            {
                "patchline": {
                    "destination": [ "obj-38", 0 ],
                    "midpoints": [ 883.5, 350.6666601896286, 929.5, 350.6666601896286 ],
                    "order": 0,
                    "source": [ "obj-39", 0 ]
                }
            },
            {
                "patchline": {
                    "destination": [ "obj-54", 3 ],
                    "order": 2,
                    "source": [ "obj-39", 0 ]
                }
            },
            {
                "patchline": {
                    "destination": [ "obj-54", 0 ],
                    "midpoints": [ 67.5, 801.953125, 45.0, 801.953125, 45.0, 591.0, 67.5, 591.0 ],
                    "order": 1,
                    "source": [ "obj-40", 0 ]
                }
            },
            {
                "patchline": {
                    "destination": [ "obj-59", 1 ],
                    "order": 0,
                    "source": [ "obj-40", 0 ]
                }
            },
            {
                "patchline": {
                    "destination": [ "obj-46", 0 ],
                    "midpoints": [ 1185.5, 424.1666601896286, 1207.5, 424.1666601896286 ],
                    "order": 1,
                    "source": [ "obj-48", 0 ]
                }
            },
            {
                "patchline": {
                    "destination": [ "obj-47", 0 ],
                    "midpoints": [ 1185.5, 350.6666601896286, 1231.5, 350.6666601896286 ],
                    "order": 0,
                    "source": [ "obj-48", 0 ]
                }
            },
            {
                "patchline": {
                    "destination": [ "obj-54", 4 ],
                    "order": 2,
                    "source": [ "obj-48", 0 ]
                }
            },
            {
                "patchline": {
                    "destination": [ "obj-51", 0 ],
                    "midpoints": [ 1463.5, 424.1666601896286, 1485.5, 424.1666601896286 ],
                    "order": 1,
                    "source": [ "obj-53", 0 ]
                }
            },
            {
                "patchline": {
                    "destination": [ "obj-52", 0 ],
                    "midpoints": [ 1463.5, 350.6666601896286, 1509.5, 350.6666601896286 ],
                    "order": 0,
                    "source": [ "obj-53", 0 ]
                }
            },
            {
                "patchline": {
                    "destination": [ "obj-54", 5 ],
                    "order": 2,
                    "source": [ "obj-53", 0 ]
                }
            },
            {
                "patchline": {
                    "destination": [ "obj-4", 0 ],
                    "source": [ "obj-54", 0 ]
                }
            },
            {
                "patchline": {
                    "destination": [ "obj-5", 0 ],
                    "source": [ "obj-54", 1 ]
                }
            },
            {
                "patchline": {
                    "destination": [ "obj-8", 0 ],
                    "source": [ "obj-54", 2 ]
                }
            },
            {
                "patchline": {
                    "destination": [ "obj-69", 0 ],
                    "source": [ "obj-74", 0 ]
                }
            },
            {
                "patchline": {
                    "destination": [ "obj-78", 0 ],
                    "source": [ "obj-77", 0 ]
                }
            },
            {
                "patchline": {
                    "destination": [ "obj-77", 1 ],
                    "source": [ "obj-81", 0 ]
                }
            },
            {
                "patchline": {
                    "destination": [ "obj-77", 0 ],
                    "source": [ "obj-87", 0 ]
                }
            }
        ],
        "autosave": 0
    }
}